<svg width="24" height="24" viewBox="0 0 24 24" fill="none" xmlns="http://www.w3.org/2000/svg">
<path d="M11.9999 13.4998C11.9006 13.4992 11.8027 13.4765 11.7133 13.4332L1.71326 8.7065C1.59873 8.65266 1.50189 8.56734 1.43405 8.4605C1.36622 8.35366 1.3302 8.22972 1.3302 8.10317C1.3302 7.97661 1.36622 7.85267 1.43405 7.74583C1.50189 7.63899 1.59873 7.55367 1.71326 7.49983L11.7133 2.77317C11.8019 2.73154 11.8987 2.70996 11.9966 2.70996C12.0945 2.70996 12.1913 2.73154 12.2799 2.77317L22.2799 7.49983C22.3945 7.55367 22.4913 7.63899 22.5591 7.74583C22.627 7.85267 22.663 7.97661 22.663 8.10317C22.663 8.22972 22.627 8.35366 22.5591 8.4605C22.4913 8.56734 22.3945 8.65266 22.2799 8.7065L12.2799 13.4332C12.1926 13.4755 12.097 13.4983 11.9999 13.4998ZM3.55993 8.1065L11.9999 12.1065L20.4399 8.1065L11.9999 4.11983L3.55993 8.1065Z" fill="#B9B9B9"/>
<path d="M12.0001 17.4401C11.9007 17.4396 11.8028 17.4168 11.7134 17.3735L1.71341 12.6668C1.63252 12.6307 1.55966 12.5787 1.49907 12.5141C1.43847 12.4495 1.39137 12.3734 1.36052 12.2903C1.32967 12.2073 1.31567 12.1189 1.31937 12.0304C1.32306 11.9419 1.34435 11.855 1.38201 11.7748C1.41967 11.6946 1.47294 11.6227 1.5387 11.5633C1.60447 11.504 1.6814 11.4583 1.76502 11.429C1.84863 11.3997 1.93724 11.3874 2.02568 11.3927C2.11412 11.3981 2.2006 11.421 2.28008 11.4601L12.0001 16.0401L21.7134 11.4468C21.7935 11.4092 21.8803 11.3877 21.9687 11.3835C22.0571 11.3794 22.1454 11.3928 22.2287 11.4228C22.312 11.4528 22.3885 11.4989 22.4539 11.5585C22.5194 11.6181 22.5724 11.69 22.6101 11.7701C22.6477 11.8503 22.6692 11.937 22.6733 12.0254C22.6775 12.1138 22.6641 12.2022 22.6341 12.2854C22.6041 12.3687 22.558 12.4452 22.4984 12.5107C22.4388 12.5761 22.3668 12.6292 22.2867 12.6668L12.2867 17.3935C12.1958 17.4299 12.0979 17.4458 12.0001 17.4401Z" fill="#B9B9B9"/>
<path d="M12 21.3803C11.9006 21.3797 11.8027 21.3569 11.7133 21.3136L1.71329 16.587C1.55662 16.5098 1.4365 16.3742 1.37875 16.2094C1.321 16.0445 1.33024 15.8636 1.40448 15.7055C1.47872 15.5475 1.61203 15.4248 1.77574 15.364C1.93946 15.3032 2.12051 15.309 2.27996 15.3803L12 20.0003L21.7133 15.407C21.7928 15.3678 21.8793 15.3449 21.9677 15.3395C22.0561 15.3342 22.1447 15.3465 22.2284 15.3758C22.312 15.4051 22.3889 15.4508 22.4547 15.5102C22.5204 15.5695 22.5737 15.6414 22.6114 15.7216C22.649 15.8018 22.6703 15.8887 22.674 15.9772C22.6777 16.0657 22.6637 16.1541 22.6328 16.2372C22.602 16.3202 22.5549 16.3963 22.4943 16.4609C22.4337 16.5256 22.3608 16.5775 22.28 16.6136L12.2866 21.3336C12.1957 21.3701 12.0978 21.386 12 21.3803Z" fill="#B9B9B9"/>
</svg>
