<svg width="18" height="18" viewBox="0 0 18 18" fill="none" xmlns="http://www.w3.org/2000/svg">
<path d="M12.595 10.2003C12.7386 9.81659 12.8114 9.41002 12.81 9.00031C12.81 8.09062 12.4486 7.21819 11.8054 6.57494C11.1621 5.93169 10.2897 5.57031 9.38001 5.57031C8.97535 5.57079 8.57404 5.6436 8.19501 5.78531L9.00001 6.61531C9.12238 6.59573 9.24608 6.5857 9.37001 6.58531C10.0132 6.58397 10.6308 6.83718 11.088 7.28966C11.5452 7.74214 11.8047 8.35712 11.81 9.00031C11.8096 9.12424 11.7996 9.24794 11.78 9.37031L12.595 10.2003Z" fill="#3C3C3C"/>
<path d="M17.145 8.76465C15.46 5.64965 12.505 3.76465 9.23499 3.76465C8.34467 3.76674 7.46032 3.91019 6.61499 4.18965L7.41999 4.99965C8.01292 4.84641 8.62259 4.76747 9.23499 4.76465C12.05 4.76465 14.61 6.33465 16.135 8.97965C15.5756 9.96095 14.834 10.8264 13.95 11.5296L14.66 12.2396C15.683 11.4143 16.5327 10.3947 17.16 9.23965L17.29 8.99965L17.145 8.76465Z" fill="#3C3C3C"/>
<path d="M2.435 2.88953L4.665 5.11953C3.25546 6.02709 2.10345 7.28242 1.32 8.76453L1.19 8.99953L1.32 9.23953C3.005 12.3545 5.96 14.2395 9.23 14.2395C10.5063 14.2393 11.7661 13.9504 12.915 13.3945L15.415 15.8945L16.29 15.1445L3.29 2.14453L2.435 2.88953ZM7.31 7.76453L10.635 11.0895C10.2593 11.3221 9.82683 11.4466 9.385 11.4495C9.06397 11.4495 8.7461 11.3861 8.44969 11.2628C8.15328 11.1394 7.88418 10.9587 7.65787 10.731C7.43156 10.5033 7.25252 10.2331 7.13103 9.93597C7.00955 9.63881 6.94802 9.32056 6.95 8.99953C6.95564 8.56281 7.08009 8.13587 7.31 7.76453ZM6.585 7.03953C6.11722 7.69923 5.89796 8.50318 5.96606 9.30903C6.03415 10.1149 6.38521 10.8706 6.95706 11.4425C7.52891 12.0143 8.28466 12.3654 9.09051 12.4335C9.89635 12.5016 10.7003 12.2823 11.36 11.8145L12.16 12.6145C11.2339 13.0104 10.2372 13.2145 9.23 13.2145C6.415 13.2145 3.855 11.6445 2.33 8.99953C3.06186 7.70364 4.11586 6.61863 5.39 5.84953L6.585 7.03953Z" fill="#3C3C3C"/>
</svg>
