<svg width="108" height="108" viewBox="0 0 108 108" fill="none" xmlns="http://www.w3.org/2000/svg">
<path d="M84 12H36C34.4087 12 32.8826 12.6321 31.7574 13.7574C30.6321 14.8826 30 16.4087 30 18H84V90H36V60.6H30V90C30 91.5913 30.6321 93.1174 31.7574 94.2426C32.8826 95.3679 34.4087 96 36 96H84C85.5913 96 87.1174 95.3679 88.2426 94.2426C89.3679 93.1174 90 91.5913 90 90V18C90 16.4087 89.3679 14.8826 88.2426 13.7574C87.1174 12.6321 85.5913 12 84 12V12Z" fill="#70A8BF"/>
<path d="M45.36 55.3779C45.046 55.6468 44.7909 55.9778 44.6108 56.3499C44.4308 56.7221 44.3296 57.1275 44.3136 57.5407C44.2976 57.9539 44.3673 58.3659 44.5181 58.7508C44.6689 59.1358 44.8977 59.4854 45.19 59.7778C45.4824 60.0702 45.8321 60.2989 46.217 60.4498C46.602 60.6006 47.014 60.6702 47.4272 60.6543C47.8403 60.6383 48.2457 60.5371 48.6179 60.357C48.9901 60.177 49.3211 59.9219 49.59 59.6079L66.96 42.2379L49.62 24.8679C49.0461 24.3764 48.3079 24.1196 47.5528 24.1487C46.7978 24.1779 46.0816 24.4909 45.5473 25.0252C45.013 25.5594 44.7 26.2757 44.6709 27.0307C44.6417 27.7857 44.8985 28.5239 45.39 29.0979L55.5 38.9979H12C11.2044 38.9979 10.4413 39.3139 9.87868 39.8765C9.31607 40.4391 9 41.2022 9 41.9979C9 42.7935 9.31607 43.5566 9.87868 44.1192C10.4413 44.6818 11.2044 44.9979 12 44.9979H55.5L45.36 55.3779Z" fill="#70A8BF"/>
</svg>
