<svg width="24" height="24" viewBox="0 0 24 24" fill="none" xmlns="http://www.w3.org/2000/svg">
<path d="M21.6733 18.5536C21.0304 17.9805 20.4676 17.3235 20 16.6003C19.4894 15.602 19.1835 14.5117 19.1 13.3936V10.1003C19.1044 8.344 18.4673 6.64658 17.3085 5.32691C16.1496 4.00724 14.5487 3.15617 12.8066 2.93359V2.07359C12.8066 1.83755 12.7129 1.61118 12.546 1.44427C12.379 1.27736 12.1527 1.18359 11.9166 1.18359C11.6806 1.18359 11.4542 1.27736 11.2873 1.44427C11.1204 1.61118 11.0266 1.83755 11.0266 2.07359V2.94693C9.30013 3.18555 7.71861 4.04176 6.57498 5.357C5.43135 6.67223 4.80311 8.35736 4.80663 10.1003V13.3936C4.72313 14.5117 4.41715 15.602 3.90663 16.6003C3.44722 17.3218 2.89342 17.9788 2.25996 18.5536C2.18885 18.6161 2.13186 18.693 2.09277 18.7792C2.05369 18.8654 2.03341 18.9589 2.03329 19.0536V19.9603C2.03329 20.1371 2.10353 20.3066 2.22856 20.4317C2.35358 20.5567 2.52315 20.6269 2.69996 20.6269H21.2333C21.4101 20.6269 21.5797 20.5567 21.7047 20.4317C21.8297 20.3066 21.9 20.1371 21.9 19.9603V19.0536C21.8998 18.9589 21.8796 18.8654 21.8405 18.7792C21.8014 18.693 21.7444 18.6161 21.6733 18.5536ZM3.41996 19.2936C4.04023 18.6944 4.58636 18.0229 5.04663 17.2936C5.6897 16.0879 6.06492 14.7576 6.14663 13.3936V10.1003C6.12019 9.31895 6.25124 8.54031 6.53199 7.81071C6.81274 7.0811 7.23744 6.41545 7.78079 5.85339C8.32415 5.29134 8.97506 4.84437 9.69475 4.53911C10.4144 4.23385 11.1882 4.07653 11.97 4.07653C12.7517 4.07653 13.5255 4.23385 14.2452 4.53911C14.9649 4.84437 15.6158 5.29134 16.1591 5.85339C16.7025 6.41545 17.1272 7.0811 17.4079 7.81071C17.6887 8.54031 17.8197 9.31895 17.7933 10.1003V13.3936C17.875 14.7576 18.2502 16.0879 18.8933 17.2936C19.3536 18.0229 19.8997 18.6944 20.52 19.2936H3.41996Z" fill="#B9B9B9"/>
<path d="M12 22.8535C12.42 22.8438 12.823 22.6859 13.1378 22.4078C13.4526 22.1296 13.6588 21.7491 13.72 21.3335H10.2134C10.2764 21.7604 10.4923 22.1498 10.8209 22.4294C11.1496 22.709 11.5686 22.8597 12 22.8535Z" fill="#B9B9B9"/>
</svg>
