<svg width="24" height="24" viewBox="0 0 24 24" fill="none" xmlns="http://www.w3.org/2000/svg">
<path d="M12 11.3333C12.923 11.3333 13.8252 11.0596 14.5927 10.5469C15.3601 10.0341 15.9582 9.30525 16.3114 8.45253C16.6647 7.5998 16.7571 6.66149 16.577 5.75625C16.3969 4.851 15.9525 4.01948 15.2998 3.36684C14.6472 2.71419 13.8157 2.26974 12.9104 2.08967C12.0052 1.90961 11.0669 2.00202 10.2142 2.35523C9.36143 2.70844 8.6326 3.30658 8.11982 4.07401C7.60704 4.84144 7.33334 5.74369 7.33334 6.66667C7.33334 7.90435 7.82501 9.09133 8.70018 9.9665C9.57535 10.8417 10.7623 11.3333 12 11.3333ZM12 3.33334C12.6593 3.33334 13.3037 3.52883 13.8519 3.8951C14.4001 4.26137 14.8273 4.78197 15.0796 5.39106C15.3319 6.00014 15.3979 6.67037 15.2693 7.31697C15.1407 7.96357 14.8232 8.55752 14.357 9.02369C13.8909 9.48987 13.2969 9.80734 12.6503 9.93595C12.0037 10.0646 11.3335 9.99856 10.7244 9.74627C10.1153 9.49398 9.59472 9.06673 9.22844 8.51857C8.86217 7.97041 8.66668 7.32594 8.66668 6.66667C8.66668 5.78261 9.01787 4.93477 9.64299 4.30965C10.2681 3.68452 11.116 3.33334 12 3.33334Z" fill="#B9B9B9"/>
<path d="M20.3133 16.2465C19.2442 15.1165 17.9559 14.2165 16.527 13.6013C15.0982 12.9862 13.559 12.6689 12.0033 12.6689C10.4477 12.6689 8.90847 12.9862 7.47965 13.6013C6.05083 14.2165 4.76247 15.1165 3.69335 16.2465C3.46155 16.4941 3.33282 16.8207 3.33335 17.1599V20.6665C3.33335 21.0202 3.47382 21.3593 3.72387 21.6093C3.97392 21.8594 4.31306 21.9999 4.66668 21.9999H19.3333C19.687 21.9999 20.0261 21.8594 20.2762 21.6093C20.5262 21.3593 20.6667 21.0202 20.6667 20.6665V17.1599C20.669 16.8216 20.5427 16.4951 20.3133 16.2465ZM19.3333 20.6665H4.66668V17.1532C5.6115 16.1583 6.74887 15.3661 8.00958 14.8247C9.27029 14.2834 10.628 14.0042 12 14.0042C13.372 14.0042 14.7297 14.2834 15.9904 14.8247C17.2511 15.3661 18.3885 16.1583 19.3333 17.1532V20.6665Z" fill="#B9B9B9"/>
</svg>
