<svg width="24" height="24" viewBox="0 0 24 24" fill="none" xmlns="http://www.w3.org/2000/svg">
<path d="M19.5266 22.6666H4.47331C4.32448 22.6675 4.17693 22.6391 4.03909 22.5829C3.90126 22.5268 3.77583 22.444 3.66997 22.3394C3.56411 22.2348 3.47989 22.1103 3.42213 21.9732C3.36437 21.836 3.33419 21.6888 3.33331 21.54V4.45997C3.33727 4.29505 3.37616 4.13285 3.4474 3.98407C3.51865 3.83529 3.62064 3.7033 3.74664 3.59683C3.87265 3.49036 4.0198 3.41182 4.17838 3.36639C4.33697 3.32097 4.50338 3.30969 4.66665 3.3333H5.99998V4.66664H4.66665V21.3333H19.3333V4.66664H18V3.3333H19.5C19.651 3.32886 19.8014 3.35466 19.9424 3.40921C20.0833 3.46375 20.2119 3.54593 20.3206 3.6509C20.4293 3.75588 20.5159 3.88154 20.5754 4.02048C20.6348 4.15943 20.6658 4.30885 20.6666 4.45997V21.54C20.6658 21.6888 20.6356 21.836 20.5778 21.9732C20.5201 22.1103 20.4359 22.2348 20.33 22.3394C20.2241 22.444 20.0987 22.5268 19.9609 22.5829C19.823 22.6391 19.6755 22.6675 19.5266 22.6666Z" fill="#B9B9B9"/>
<path d="M11.1066 17.1734L7.53324 13.6C7.42486 13.4717 7.3689 13.3072 7.37655 13.1395C7.38419 12.9717 7.45488 12.813 7.57447 12.6951C7.69407 12.5772 7.85376 12.5087 8.02162 12.5035C8.18949 12.4982 8.35315 12.5565 8.4799 12.6667L11.1066 15.2934L16.8666 9.53335C16.9941 9.42413 17.1582 9.36706 17.3259 9.37354C17.4937 9.38002 17.6529 9.44958 17.7716 9.56831C17.8903 9.68704 17.9599 9.8462 17.9664 10.014C17.9729 10.1818 17.9158 10.3458 17.8066 10.4734L11.1066 17.1734Z" fill="#B9B9B9"/>
<path d="M17.3334 7.33335H6.66669V4.88669C6.66844 4.47526 6.83266 4.08118 7.12359 3.79025C7.41451 3.49933 7.80859 3.33511 8.22002 3.33335H9.41335C9.56022 2.75974 9.89382 2.25133 10.3616 1.88826C10.8293 1.52519 11.4046 1.32812 11.9967 1.32812C12.5888 1.32812 13.1641 1.52519 13.6318 1.88826C14.0996 2.25133 14.4332 2.75974 14.58 3.33335H15.7734C16.1859 3.33335 16.5817 3.49679 16.8741 3.78791C17.1665 4.07902 17.3316 4.47411 17.3334 4.88669V7.33335ZM8.00002 6.00002H16V4.88669C16 4.82834 15.9768 4.77238 15.9356 4.73112C15.8943 4.68987 15.8384 4.66669 15.78 4.66669H13.3334V4.00002C13.3334 3.6464 13.1929 3.30726 12.9428 3.05721C12.6928 2.80716 12.3536 2.66669 12 2.66669C11.6464 2.66669 11.3073 2.80716 11.0572 3.05721C10.8072 3.30726 10.6667 3.6464 10.6667 4.00002V4.66669H8.22002C8.19113 4.66669 8.16252 4.67238 8.13583 4.68343C8.10914 4.69449 8.08489 4.71069 8.06446 4.73112C8.04403 4.75155 8.02782 4.7758 8.01677 4.8025C8.00571 4.82919 8.00002 4.8578 8.00002 4.88669V6.00002Z" fill="#B9B9B9"/>
</svg>
